<svg xmlns="http://www.w3.org/2000/svg" xmlns:xlink="http://www.w3.org/1999/xlink" width="48" height="48" viewBox="0 0 48 48" fill="none"><g opacity="1"  transform="translate(0 0)  rotate(0)"><path id="矩形 1" fill-rule="evenodd" style="fill:#EBF4FF" opacity="1" d="M12 48L36 48C42.63 48 48 42.63 48 36L48 12C48 5.37 42.63 0 36 0L12 0C5.37 0 0 5.37 0 12L0 36C0 42.63 5.37 48 12 48Z"></path><path id="路径 2" fill-rule="evenodd" style="fill:#FFC046" opacity="1" d="M37.2521 36.7959L11.1384 36.7959C10.5379 36.7959 10.0512 36.3197 10.0512 35.7323C10.0512 35.1449 10.5379 34.6687 11.1384 34.6687L37.2521 34.6687C37.8526 34.6687 38.3393 35.1449 38.3393 35.7323C38.3393 36.3197 37.8526 36.7959 37.2521 36.7959Z"></path><path id="路径 1" fill-rule="evenodd" style="fill:#52A0FF" opacity="1" d="M17.6515 32.5073L10.0983 32.5073C10.0794 32.5073 10.0667 32.495 10.0667 32.4764L10.0667 22.3942C10.0667 20.3351 11.7702 18.6687 13.8749 18.6687C15.9797 18.6687 17.6831 20.3351 17.6831 22.3942L17.6831 32.4764C17.6831 32.495 17.6705 32.5073 17.6515 32.5073ZM38.2884 32.5073L30.7352 32.5073C30.7163 32.5073 30.7036 32.495 30.7036 32.4764L30.7036 26.7814C30.7036 24.7223 32.4071 23.0559 34.5118 23.0559C36.6166 23.0559 38.32 24.7223 38.32 26.7814L38.32 32.4764C38.32 32.495 38.3074 32.5073 38.2884 32.5073ZM27.97 32.5073L20.4168 32.5073C20.3978 32.5073 20.3852 32.495 20.3852 32.4764L20.3852 12.816C20.3852 10.7569 22.0886 9.09042 24.1934 9.09042C26.2981 9.09042 28.0016 10.7569 28.0016 12.816L28.0016 32.4764C28.0016 32.495 27.9889 32.5073 27.97 32.5073Z"></path></g></svg>