<svg xmlns="http://www.w3.org/2000/svg" xmlns:xlink="http://www.w3.org/1999/xlink" width="399.9561462402344" height="261.23" viewBox="0 0 399.9561462402344 261.23" fill="none"><g opacity="1"  transform="translate(0 0)  rotate(0)"><path id="Path" fill-rule="evenodd" style="fill:#E9EEF2" opacity="1" d="M200.44 229.48C200.44 223.16 195.32 218.04 189.01 218.04C182.69 218.04 177.57 223.16 177.57 229.48C177.57 235.79 182.69 240.91 189.01 240.91C195.32 240.91 200.44 235.79 200.44 229.48Z"></path><path  id="Path" style="fill:#F2F6F9; opacity:1;" d="M91.9838,205.026l-19.28,-19.28l3.7124,-3.712l19.28,19.28z"></path><path id="Path" fill-rule="evenodd" style="fill:#F2F6F9" opacity="1" d="M10.7 177.58C9.33001 178.33 8.05001 179.21 6.85001 180.21L3.55001 176.9L0.0100098 180.45L3.37001 183.81C1.35001 186.4 0.36001 188.93 0.39001 191.41C0.38001 192.59 0.61001 193.76 1.07001 194.85C1.53001 195.94 2.20001 196.93 3.05001 197.76C4.54001 199.24 6.09001 200.05 7.71001 200.17C9.29001 200.31 10.87 200.04 12.31 199.4C14.05 198.59 15.72 197.66 17.33 196.61C19.07 195.52 20.41 194.8 21.35 194.46C22.28 194.11 23.05 194.24 23.67 194.85C24.83 196.02 24.28 197.72 22.04 199.96C20.81 201.18 19.4 202.2 17.85 202.99C16.36 203.78 14.76 204.35 13.1 204.68L15.64 211.06C17.33 210.73 18.96 210.14 20.46 209.31C22.25 208.37 23.92 207.23 25.44 205.9L28.71 209.16L32.25 205.62L28.86 202.23C30.74 199.66 31.65 197.17 31.59 194.76C31.58 193.62 31.34 192.48 30.89 191.43C30.44 190.38 29.79 189.42 28.97 188.62C27.48 187.14 25.92 186.34 24.3 186.24C22.73 186.12 21.16 186.39 19.72 187.03C17.98 187.84 16.3 188.77 14.69 189.83C12.99 190.92 11.68 191.64 10.77 191.99C9.85001 192.33 9.11001 192.22 8.54001 191.65C7.98001 191.07 7.78001 190.35 7.94001 189.46C8.11001 188.58 8.78001 187.55 9.94001 186.38C11.8 184.53 14.26 183.17 17.32 182.3L14.64 176.01C13.26 176.36 11.94 176.89 10.7 177.58Z"></path><path id="Path" fill-rule="evenodd" style="fill:#F2F6F9" opacity="1" d="M49.21 126.34C50.62 128.27 52.58 130.15 55.08 131.98C57.67 133.87 60.48 135.44 63.44 136.66L61.08 143.61L68.62 146.16L71.07 138.95C76.05 139.82 80.23 139.36 83.61 137.59C85.24 136.76 86.69 135.63 87.87 134.24C89.05 132.86 89.95 131.25 90.51 129.52C91.58 126.36 91.62 123.58 90.63 121.2C89.7 118.88 88.2 116.83 86.28 115.23C84.36 113.65 81.85 111.92 78.77 110.05C76.01 108.4 74.07 107.04 72.93 105.98C71.79 104.91 71.43 103.78 71.84 102.57C72.25 101.35 73.15 100.55 74.54 100.18C75.93 99.81 77.86 100.04 80.33 100.88C84.27 102.21 87.93 104.76 91.33 108.51L98.4 100.26C96.93 98.54 95.24 97.02 93.37 95.73C91.35 94.32 89.19 93.1 86.93 92.11L89.3 85.09L81.76 82.54L79.34 89.69C74.24 88.63 69.93 89 66.43 90.78C64.75 91.61 63.25 92.77 62.02 94.19C60.79 95.61 59.87 97.26 59.29 99.04C58.22 102.2 58.16 104.99 59.13 107.39C60.04 109.73 61.53 111.79 63.47 113.39C65.84 115.29 68.35 117.02 70.97 118.57C73.75 120.29 75.72 121.69 76.87 122.78C78.01 123.86 78.37 125.06 77.93 126.36C77.09 128.83 74.29 129.25 69.51 127.64C66.91 126.74 64.46 125.45 62.26 123.8C60.08 122.24 58.14 120.36 56.51 118.24L49.21 126.34Z"></path><path id="Path" fill-rule="evenodd" style="fill:#F2F6F9" opacity="1" d="M35.64 39.41C33.3 38.55 30.89 37.87 28.45 37.36C25.87 36.8 24.01 36.25 22.85 35.73C21.69 35.21 21.11 34.42 21.11 33.37C21.11 32.32 21.6 31.47 22.58 30.82C23.56 30.16 25.12 29.83 27.25 29.83C30.66 29.83 34.17 30.84 37.79 32.87L41.1 24.62C39.51 23.67 37.8 22.94 36.02 22.43C34.08 21.86 32.09 21.48 30.07 21.3L30.07 15.23L23.56 15.23L23.56 21.42C19.32 21.95 16.08 23.36 13.83 25.67C12.74 26.75 11.88 28.04 11.3 29.47C10.73 30.89 10.44 32.41 10.46 33.95C10.46 36.68 11.15 38.86 12.53 40.47C13.85 42.03 15.55 43.24 17.47 43.96C19.81 44.82 22.21 45.5 24.64 46.01C27.25 46.61 29.14 47.18 30.32 47.73C31.5 48.27 32.09 49.1 32.09 50.23C32.09 52.36 30.02 53.43 25.89 53.43C23.64 53.42 21.41 53.06 19.26 52.37C17.16 51.73 15.17 50.78 13.34 49.56L9.81 57.76C11.4 58.89 13.41 59.83 15.84 60.6C18.35 61.38 20.94 61.86 23.56 62.03L23.56 68.03L30.07 68.03L30.07 61.8C34.17 61.16 37.29 59.71 39.45 57.44C40.49 56.38 41.31 55.12 41.87 53.73C42.42 52.35 42.7 50.87 42.68 49.38C42.68 46.65 41.98 44.48 40.59 42.89C39.25 41.34 37.55 40.14 35.64 39.41Z"></path><path id="Path" fill-rule="evenodd" style="fill:#F2F6F9" opacity="1" d="M230.19 172.43C232.18 173.82 234.68 175 237.69 175.95C240.8 176.92 244.02 177.52 247.27 177.73L247.27 185.19L255.36 185.19L255.36 177.44C260.44 176.65 264.32 174.85 267 172.04C268.29 170.72 269.31 169.15 270 167.44C270.69 165.72 271.03 163.88 271.01 162.03C271.01 158.64 270.14 155.96 268.41 153.98C266.75 152.05 264.64 150.57 262.26 149.65C259.9 148.75 256.92 147.9 253.32 147.11C250.13 146.41 247.82 145.74 246.38 145.09C244.94 144.44 244.22 143.46 244.22 142.16C244.22 140.86 244.83 139.8 246.04 138.99C247.26 138.17 249.19 137.77 251.84 137.77C256.06 137.77 260.43 139.02 264.93 141.53L269.04 131.28C267.06 130.11 264.95 129.2 262.74 128.57C260.33 127.86 257.85 127.39 255.35 127.17L255.35 119.64L247.25 119.64L247.25 127.34C242 127.99 237.97 129.74 235.18 132.59C233.83 133.94 232.76 135.54 232.04 137.31C231.33 139.08 230.97 140.97 231 142.88C231 146.27 231.85 148.97 233.56 150.97C235.2 152.92 237.32 154.42 239.7 155.32C242.6 156.38 245.58 157.23 248.6 157.87C251.84 158.61 254.19 159.32 255.65 160C257.11 160.67 257.85 161.7 257.85 163.1C257.85 165.75 255.28 167.07 250.15 167.07C247.36 167.06 244.58 166.61 241.93 165.75C239.32 164.95 236.84 163.77 234.58 162.25L230.19 172.43Z"></path><path id="Path" fill-rule="evenodd" style="fill:#F2F6F9" opacity="1" d="M345.94 164.83C342.9 163.67 339.07 162.57 334.44 161.56C330.33 160.66 327.35 159.79 325.5 158.95C323.65 158.12 322.72 156.86 322.72 155.19C322.72 153.51 323.5 152.15 325.06 151.1C326.63 150.06 329.11 149.53 332.53 149.53C337.97 149.53 343.58 151.15 349.37 154.38L354.66 141.19C352.12 139.68 349.39 138.5 346.55 137.69C343.45 136.78 340.26 136.18 337.05 135.89L337.05 126.2L326.63 126.2L326.63 136.07C319.86 136.91 314.68 139.16 311.09 142.84C307.51 146.52 305.71 150.93 305.71 156.08C305.71 160.45 306.81 163.92 309.01 166.49C311.13 168.99 313.85 170.92 316.92 172.08C319.99 173.25 323.81 174.34 328.38 175.35C332.54 176.32 335.56 177.23 337.45 178.1C339.33 178.98 340.27 180.31 340.27 182.1C340.27 185.51 336.97 187.22 330.37 187.22C326.78 187.2 323.2 186.62 319.78 185.51C316.43 184.49 313.24 182.98 310.32 181.03L304.68 194.13C307.23 195.92 310.44 197.43 314.32 198.66C318.32 199.91 322.46 200.68 326.64 200.95L326.64 210.55L337.05 210.55L337.05 200.59C343.59 199.57 348.58 197.26 352.02 193.64C355.46 190.02 357.18 185.72 357.18 180.76C357.18 176.39 356.06 172.94 353.84 170.39C351.7 167.92 348.99 166.01 345.94 164.83Z"></path><path id="Path" fill-rule="evenodd" style="fill:#F2F6F9" opacity="1" d="M355.66 51.9401C356.23 53.4901 356.01 54.7701 355 55.7801C353.08 57.7101 350.25 56.8101 346.53 53.0801C344.51 51.0401 342.82 48.7001 341.51 46.1401C340.2 43.6701 339.25 41.0201 338.71 38.2701L328.13 42.4801C328.55 44.9401 329.51 47.6001 331.01 50.4801C332.56 53.4501 334.47 56.2201 336.67 58.7301L331.26 64.1601L337.14 70.0401L342.76 64.4201C347.02 67.5301 351.15 69.0401 355.14 68.9401C357.04 68.9201 358.91 68.5301 360.66 67.7901C362.41 67.0401 363.99 65.9601 365.31 64.6001C367.78 62.1301 369.1 59.5501 369.28 56.8601C369.47 54.2601 369.02 51.6501 367.96 49.2601C366.9 46.8901 365.35 44.1101 363.32 40.9201C361.5 38.1001 360.31 35.9301 359.74 34.4101C359.17 32.8901 359.35 31.6601 360.3 30.7101C361.24 29.7701 362.45 29.4401 363.93 29.7301C365.4 30.0201 367.1 31.1201 369.02 33.0501C372.09 36.1301 374.35 40.2101 375.79 45.3001L386.22 40.8401C385.64 38.5601 384.76 36.3501 383.62 34.2901C382.38 32.0201 380.92 29.8901 379.27 27.9101L384.74 22.4401L378.86 16.5601L373.29 22.1301C368.99 18.7801 364.79 17.1401 360.69 17.1901C358.73 17.1801 356.79 17.5701 354.99 18.3401C353.19 19.1001 351.55 20.2101 350.19 21.6201C347.72 24.0801 346.39 26.6601 346.18 29.3601C345.95 31.9701 346.4 34.5901 347.47 36.9801C348.81 39.8501 350.35 42.6201 352.09 45.2701C353.9 48.1601 355.09 50.3901 355.66 51.9401Z"></path><path id="Path" fill-rule="evenodd" style="fill:#F2F6F9" opacity="1" d="M185.19 177.24C183.39 176.58 181.54 176.05 179.65 175.66C177.67 175.23 176.24 174.81 175.35 174.41C174.46 174.01 174.01 173.4 174.01 172.6C174.01 171.79 174.39 171.13 175.14 170.63C175.89 170.13 177.09 169.88 178.73 169.88C181.35 169.88 184.05 170.66 186.84 172.21L189.39 165.86C188.16 165.14 186.85 164.57 185.48 164.18C183.99 163.74 182.45 163.45 180.9 163.31L180.9 158.65L175.89 158.65L175.89 163.4C172.63 163.8 170.14 164.89 168.4 166.67C167.56 167.51 166.9 168.5 166.46 169.6C166.01 170.69 165.79 171.86 165.81 173.04C165.81 175.14 166.34 176.81 167.4 178.04C168.41 179.25 169.72 180.18 171.2 180.74C173 181.4 174.84 181.92 176.71 182.32C178.72 182.78 180.17 183.22 181.08 183.64C181.98 184.05 182.44 184.69 182.44 185.56C182.44 187.2 180.85 188.02 177.69 188.02C175.96 188.01 174.24 187.74 172.59 187.2C170.97 186.71 169.44 185.98 168.03 185.04L165.32 191.35C166.75 192.31 168.31 193.04 169.96 193.53C171.88 194.13 173.88 194.5 175.89 194.63L175.89 199.25L180.91 199.25L180.91 194.46C184.06 193.97 186.46 192.85 188.11 191.11C188.92 190.29 189.55 189.32 189.98 188.26C190.4 187.2 190.61 186.06 190.6 184.91C190.6 182.81 190.07 181.14 188.99 179.91C187.96 178.72 186.66 177.8 185.19 177.24Z"></path><path id="Path" fill-rule="evenodd" style="fill:#F2F6F9" opacity="1" d="M206.4 56.6798C203.8 58.3498 201.8 59.4498 200.4 59.9798C199 60.5098 197.86 60.3298 196.99 59.4598C196.12 58.5898 195.82 57.4798 196.08 56.1198C196.35 54.7598 197.37 53.1898 199.15 51.4198C201.98 48.5798 205.74 46.4998 210.44 45.1698L206.33 35.5498C204.22 36.0898 202.18 36.8898 200.28 37.9498C198.2 39.0898 196.23 40.4298 194.4 41.9498L189.36 36.9098L183.94 42.3298L189.1 47.4598C186.01 51.4198 184.49 55.2798 184.54 59.0598C184.54 60.8698 184.9 62.6598 185.6 64.3198C186.3 65.9898 187.33 67.4998 188.63 68.7498C190.9 71.0198 193.28 72.2598 195.76 72.4498C198.16 72.6598 200.58 72.2498 202.79 71.2598C205.44 70.0298 208 68.6098 210.45 67.0098C213.12 65.3398 215.17 64.2398 216.6 63.7198C218.03 63.1898 219.21 63.3898 220.14 64.3298C221.91 66.0998 221.07 68.6998 217.64 72.1298C215.75 73.9998 213.59 75.5498 211.22 76.7498C208.95 77.9598 206.5 78.8398 203.97 79.3398L207.85 89.0898C210.11 88.6998 212.57 87.8198 215.23 86.4298C217.96 84.9998 220.51 83.2498 222.83 81.2098L227.83 86.2098L233.25 80.7998L228.07 75.6098C230.94 71.6798 232.33 67.8798 232.24 64.2098C232.22 62.4598 231.85 60.7298 231.16 59.1198C230.47 57.5098 229.47 56.0598 228.22 54.8398C225.95 52.5698 223.57 51.3498 221.09 51.1798C218.69 51.0098 216.28 51.4298 214.09 52.3998C211.42 53.6398 208.85 55.0698 206.4 56.6798Z"></path><path  id="Path" style="fill:#F2F6F9; opacity:1;" d="M299.784,101.064l19.57,-19.5701l3.712,3.7124l-19.57,19.5697z"></path><path  id="Path" style="fill:#F2F6F9; opacity:1;" d="M376.674,189.814l19.57,-19.57l3.712,3.712l-19.57,19.57z"></path><path  id="Path" style="fill:#F2F6F9; opacity:1;" d="M155.474,29.4438l19.57,-19.56997l3.712,3.71227l-19.57,19.57z"></path><path  id="Path" style="fill:#F2F6F9; opacity:1;" d="M90.4138,62.7262l-22.08,-22.08l3.7124,-3.7123l22.08,22.08z"></path><path  id="Path" style="fill:#F2F6F9; opacity:1;" d="M288.736,10.2337l18.84,18.84l-3.712,3.7123l-18.84,-18.84z"></path><path  id="Path" style="fill:#F2F6F9; opacity:1;" d="M269.274,228.096l-19.33,-19.33l3.712,-3.712l19.33,19.33z"></path><path id="Path" fill-rule="evenodd" style="fill:#E9EEF2" opacity="1" d="M22.87 125.44C22.87 119.12 17.75 114 11.44 114C5.12 114 0 119.12 0 125.44C0 131.75 5.12 136.87 11.44 136.87C17.75 136.87 22.87 131.75 22.87 125.44Z"></path><path id="Path" fill-rule="evenodd" style="fill:#E9EEF2" opacity="1" d="M121 11.44C121 5.12 115.88 0 109.57 0C103.25 0 98.13 5.12 98.13 11.44C98.13 17.75 103.25 22.87 109.57 22.87C115.88 22.87 121 17.75 121 11.44Z"></path><path id="Path" fill-rule="evenodd" style="fill:#E9EEF2" opacity="1" d="M289.77 52.2701C289.77 45.9501 284.65 40.8301 278.34 40.8301C272.02 40.8301 266.9 45.9501 266.9 52.2701C266.9 58.5801 272.02 63.7001 278.34 63.7001C284.65 63.7001 289.77 58.5801 289.77 52.2701Z"></path><path id="Path" fill-rule="evenodd" style="fill:#E9EEF2" opacity="1" d="M392.98 114.01C392.98 107.69 387.86 102.57 381.55 102.57C375.23 102.57 370.11 107.69 370.11 114.01C370.11 120.32 375.23 125.44 381.55 125.44C387.86 125.44 392.98 120.32 392.98 114.01Z"></path><path id="Path" fill-rule="evenodd" style="fill:#3361C2" opacity="1" d="M257.65 164.06L242.95 117.78L223.21 117.78L237.91 164.06L257.65 164.06Z"></path><path id="Path" fill-rule="evenodd" style="fill:#3361C2" opacity="1" d="M249.77 164.06L249.77 161.03L224.34 161.03L224.34 164.06L249.77 164.06Z"></path><path id="Path" fill-rule="evenodd" style="fill:#E4EFF7" opacity="1" d="M340.61 259.27C340.61 258.19 273.99 257.31 191.82 257.31C109.65 257.31 43.03 258.19 43.03 259.27C43.03 260.35 109.65 261.23 191.82 261.23C273.99 261.23 340.61 260.35 340.61 259.27Z"></path><path  id="Path" style="fill:#475056; opacity:1;" d="M156.12,259.134l21.08,-94.73l1.22,0.272l-21.08,94.73z"></path><path  id="Path" style="fill:#475056; opacity:1;" d="M178.95,259.134l21.08,-94.73l1.22,0.272l-21.08,94.73z"></path><path  id="Path" style="fill:#475056; opacity:1;" d="M329.09,259.396l-21.1,-94.82l1.22,-0.272l21.1,94.82z"></path><path  id="Path" style="fill:#475056; opacity:1;" d="M306.23,259.396l-21.1,-94.82l1.22,-0.272l21.1,94.82z"></path><path  id="Path" style="fill:#475056; opacity:1;" d="M158.64,163.85h164.41v1.25h-164.41z"></path><path id="Path" fill-rule="evenodd" style="fill:#24272D" opacity="1" d="M220.96 117.78L220.96 143.29L229.06 143.29L220.96 117.78Z"></path><path id="Path" fill-rule="evenodd" style="fill:#FFFFFF" opacity="1" d="M237.29 143.93C238.42 146.66 241.16 148.11 243.42 147.18C244.92 146.55 245.82 145.04 245.93 143.28C245.98 142.35 245.82 141.41 245.46 140.55C244.33 137.82 241.59 136.37 239.33 137.3C237.25 138.16 236.31 140.75 237.07 143.29C237.13 143.5 237.21 143.72 237.29 143.93Z"></path><path id="Path" fill-rule="evenodd" style="fill:#24272D" opacity="1" d="M243.68 143.29C243.73 142.36 243.57 141.42 243.21 140.56C242.08 137.83 239.34 136.38 237.08 137.31C235 138.17 234.06 140.75 234.82 143.29L243.68 143.29Z"></path><path id="Path" fill-rule="evenodd" style="fill:#24272D" opacity="1" d="M280.45 142.41C279.89 142.97 279.13 143.29 278.33 143.29L280.33 143.29C281.13 143.29 281.89 142.97 282.45 142.41C283.02 141.85 283.33 141.09 283.33 140.29L283.33 89.52C283.33 88.72 283.02 87.96 282.45 87.4C281.89 86.84 281.13 86.52 280.33 86.52L278.33 86.52C279.13 86.52 279.89 86.84 280.45 87.4C281.02 87.96 281.33 88.72 281.33 89.52L281.33 140.29C281.33 141.09 281.02 141.85 280.45 142.41Z"></path><path id="Path" fill-rule="evenodd" style="fill:#3361C2" opacity="1" d="M186.95 86.52C185.29 86.52 183.95 87.86 183.95 89.52L183.95 140.29C183.95 141.95 185.29 143.29 186.95 143.29L278.34 143.29C280 143.29 281.34 141.95 281.34 140.29L281.34 89.52C281.34 87.86 280 86.52 278.34 86.52L186.95 86.52Z"></path><path id="Path" fill-rule="evenodd" style="fill:#FFFFFF" opacity="1" d="M190.81 89.4502L190.81 139.44L277.82 139.44L277.82 89.4502L190.81 89.4502Z"></path><path id="Path" fill-rule="evenodd" style="fill:#3361C2" opacity="1" d="M42.68 251.75L54.83 259.03L92.28 259.03L72.34 248.42L55.75 238.46L42.68 251.75Z"></path><path id="Path" fill-rule="evenodd" style="fill:#3361C2" opacity="1" d="M121.08 259.02L168.95 259.02L149.01 248.41L129.44 242.35L121.08 259.02Z"></path><path id="Path" fill-rule="evenodd" style="fill:#EA6F57" opacity="1" d="M99.79 184.98L48.86 237.39L77.69 251.37L122.67 206.42C126.72 202.37 129.37 197.14 130.26 191.48L134.1 166.81L150.94 191.35L124.53 241.98L153.21 250.48L180.35 206.76C182.83 202.76 184.08 198.12 183.94 193.42C183.8 188.71 182.27 184.16 179.55 180.32L153.3 142.43L110.64 131.86L107.32 137.07C104.01 142.27 102.07 148.22 101.69 154.37L99.79 184.98Z"></path><path id="Path" fill-rule="evenodd" style="fill:#F9D0B5" opacity="1" d="M131.1 141.9C131.1 141.9 118.22 140.8 114.17 148.94C110.12 157.08 117.95 159.97 120.64 159.77C121.5 159.69 123.3 156.27 123.3 156.27C128.02 155.18 131.1 154.6 131.1 154.6L131.1 141.9Z"></path><path  id="Path" style="fill:#FFFFFF; opacity:1;" d="M100.728,190.691l-2.3295,-6.282l6.1555,-0.947l0.114,0.742l-5.701,0.877l-0.057,-0.371l0.3516,-0.13l2.3004,6.201l-0.703,0.261z"></path><path  id="Path" style="fill:#FFFFFF; opacity:1;" d="M154.56,195.879l-5.381,-4.818l7.709,-3.854l0.335,0.671l-7.215,3.607l-0.168,-0.335l0.25,-0.279l5.25,4.7l-0.501,0.558z"></path><path  id="Path" style="fill:#FFFFFF; opacity:1;" d="M132.887,177.046l1.634,-17.794l0.747,0.069l-1.669,18.167l-0.747,-0.069z"></path><path id="Path" fill-rule="evenodd" style="fill:#3361C2" opacity="1" d="M110.64 131.86L153.29 142.44C153.29 142.44 163.13 90.6301 140.99 85.7601C125.06 82.2501 110.64 131.86 110.64 131.86Z"></path><path id="Path" fill-rule="evenodd" style="fill:#3361C2" opacity="1" d="M146.91 120.22L119.75 142.44L132.06 157.24L163.94 131.86C163.94 131.86 165.91 100.37 163.14 95.91C160.37 91.45 143.44 86.54 143.44 86.54L146.91 120.22Z"></path><path id="Path" fill-rule="evenodd" style="fill:#24272D" opacity="1" d="M166.31 64.4502C164.98 56.1102 157.67 50.3502 149.98 51.5702C142.29 52.8002 137.14 60.5602 138.47 68.8902C139.8 77.2302 147.11 82.9902 154.8 81.7702C162.49 80.5402 167.64 72.7802 166.31 64.4502Z"></path><path id="Path" fill-rule="evenodd" style="fill:#F9D0B5" opacity="1" d="M148.97 96.69C149.88 95.81 150.48 94.66 150.68 93.42L153.78 73.89C154 72.39 153.61 70.85 152.71 69.63C151.8 68.4 150.45 67.58 148.95 67.34C147.44 67.1 145.9 67.47 144.66 68.35C143.42 69.24 142.58 70.57 142.32 72.07L139.22 91.6C139.08 92.48 139.15 93.39 139.42 94.25C139.69 95.1 140.15 95.88 140.77 96.53C141.39 97.18 142.16 97.67 143 97.97C143.85 98.27 144.75 98.38 145.64 98.27C146.89 98.12 148.06 97.56 148.97 96.69Z"></path><path id="Path" fill-rule="evenodd" style="fill:#F9D0B5" opacity="1" d="M150.84 88.8398C152.22 89.0498 153.63 88.9498 154.96 88.5598C156.3 88.1598 157.53 87.4798 158.57 86.5498C159.61 85.6198 160.44 84.4798 160.99 83.1998C161.54 81.9198 161.8 80.5298 161.75 79.1398L161.5 72.2298C161.43 69.9998 160.57 67.8698 159.07 66.2098C157.58 64.5498 155.56 63.4698 153.35 63.1598C150.86 62.8198 148.33 63.4698 146.32 64.9898C144.32 66.4998 142.99 68.7498 142.64 71.2298L141.69 77.9598C141.35 80.4298 141.99 82.9398 143.48 84.9398C144.97 86.9398 147.18 88.2798 149.65 88.6598L150.84 88.8398Z"></path><path  id="Path" style="fill:#000000; opacity:1;" d="M156.848,73.4204l2.519,6.275l-2.845,0.3961l-0.104,-0.7429l2.37,-0.33l0.052,0.3715l-0.348,0.1396l-2.34,-5.83z"></path><path id="Path" fill-rule="evenodd" style="fill:#000000" opacity="1" d="M155.39 75.8401C155.39 75.2701 154.93 74.8101 154.36 74.8101C153.79 74.8101 153.33 75.2701 153.33 75.8401C153.33 76.4101 153.79 76.8701 154.36 76.8701C154.93 76.8701 155.39 76.4101 155.39 75.8401Z"></path><path id="Path" fill-rule="evenodd" style="fill:#000000" opacity="1" d="M160.64 75.8401C160.64 75.2701 160.18 74.8101 159.61 74.8101C159.04 74.8101 158.58 75.2701 158.58 75.8401C158.58 76.4101 159.04 76.8701 159.61 76.8701C160.18 76.8701 160.64 76.4101 160.64 75.8401Z"></path><path  id="Path" style="fill:#000000; opacity:1;" d="M152.95,81.0402c0.52467,0.81487 1.299,1.3593 2.323,1.6333c0.32467,0.08693 0.655,0.14087 0.991,0.1618c0.16467,0.01027 0.29433,0.01223 0.389,0.0059l0.05,0.7483c-0.12667,0.00853 -0.28833,0.00667 -0.485,-0.0056c-0.386,-0.02407 -0.76567,-0.08603 -1.139,-0.1859c-0.52667,-0.14093 -1.00367,-0.34893 -1.431,-0.624c-0.53933,-0.34673 -0.98233,-0.7893 -1.329,-1.3277z"></path><path id="Path" fill-rule="evenodd" style="fill:#24272D" opacity="1" d="M125.63 100.92C143.24 100.71 146.07 89.1301 144.85 82.4501C144.35 79.7801 142.72 77.8101 140.89 75.9201C150.39 73.8401 149.74 67.6201 149.74 67.6201C149.74 67.6201 167.41 75.9901 166.39 64.8401C165.37 53.6901 154.92 49.2701 147.75 49.8901C131.07 51.3201 130.58 61.9401 126.1 63.4701C100.73 72.1501 116.6 88.3601 116.6 88.3601C116.6 88.3601 114.98 101.05 125.63 100.92Z"></path><path id="Path" fill-rule="evenodd" style="fill:#F9D0B5" opacity="1" d="M146.43 80.5902C148.48 79.4202 149.2 76.8102 148.03 74.7602L146.11 71.3802C144.94 69.3302 142.33 68.6102 140.28 69.7802C138.23 70.9502 137.51 73.5602 138.68 75.6102L140.6 78.9902C141.77 81.0402 144.38 81.7602 146.43 80.5902Z"></path><path  id="Path" style="fill:#000000; opacity:1;" d="M143.974,77.3155l-2.73,-4.79l0.652,-0.3713l2.73,4.79z"></path><path id="Path" fill-rule="evenodd" style="fill:#EA6F57" opacity="1" d="M239.88 113.44C239.88 89.47 220.45 70.04 196.49 70.04C172.52 70.04 153.09 89.47 153.09 113.44C153.09 137.4 172.52 156.83 196.49 156.83C220.45 156.83 239.88 137.4 239.88 113.44Z"></path><path id="Path" fill-rule="evenodd" style="fill:#FFBA5F" opacity="1" d="M247.63 113.44C247.63 89.47 228.2 70.04 204.24 70.04C180.27 70.04 160.84 89.47 160.84 113.44C160.84 137.4 180.27 156.83 204.24 156.83C228.2 156.83 247.63 137.4 247.63 113.44Z"></path><path id="Path" fill-rule="evenodd" style="fill:#F79D52" opacity="1" d="M236.9 113.44C236.9 95.3998 222.28 80.7798 204.25 80.7798C186.21 80.7798 171.59 95.3998 171.59 113.44C171.59 131.47 186.21 146.09 204.25 146.09C222.28 146.09 236.9 131.47 236.9 113.44Z"></path><path id="Path" fill-rule="evenodd" style="fill:#F9D0B5" opacity="1" d="M155.39 118.98C155.39 118.98 163.19 124.5 165.14 120.73C165.14 120.73 166.39 121.57 167 120.94C167.6 120.32 165.96 116.39 165.96 116.39C165.96 116.39 166.76 113.07 164.57 110.81C162.37 108.55 156.39 104.36 155.39 104.86C154.39 105.37 148.7 111.49 148.7 111.49L148.7 121.48L155.39 118.98Z"></path><path  id="Path" style="fill:#FFFFFF; opacity:1;" d="M147.282,126.305l-33.66,-0.74l0.016,-0.75l33.66,0.74z"></path><path  id="Path" style="fill:#FFFFFF; opacity:1;" d="M122.076,107.235l23.44,1l-0.032,0.75l-23.44,-1z"></path><path  id="Path" style="fill:#FFFFFF; opacity:1;" d="M125.732,107.458l5.46,-5.18l0.516,0.544l-5.46,5.18z"></path><path  id="Path" style="fill:#FFFFFF; opacity:1;" d="M140.358,126.06l-12.56,10.28l-0.476,-0.58l12.56,-10.28z"></path><path id="Path" fill-rule="evenodd" style="fill:#E25D4B" opacity="1" d="M192.02 125.83C193.45 126.79 195.01 127.52 196.66 128.01C198.59 128.61 200.58 128.98 202.59 129.11L202.59 133.73L207.61 133.73L207.61 128.94C210.75 128.45 213.16 127.33 214.82 125.59C215.62 124.77 216.25 123.81 216.67 122.75C217.1 121.68 217.31 120.55 217.3 119.41C217.3 117.3 216.76 115.63 215.69 114.41C214.66 113.22 213.36 112.3 211.89 111.73C210.08 111.07 208.22 110.55 206.34 110.16C204.36 109.73 202.93 109.31 202.04 108.91C201.14 108.51 200.7 107.9 200.7 107.1C200.7 106.29 201.07 105.63 201.83 105.13C202.58 104.63 203.78 104.38 205.42 104.38C208.04 104.38 210.74 105.16 213.53 106.71L216.08 100.36C214.85 99.6399 213.54 99.0699 212.17 98.6799C210.68 98.2399 209.14 97.9499 207.6 97.8199L207.6 93.1499L202.58 93.1499L202.58 97.8999C199.32 98.2999 196.83 99.3799 195.1 101.15C194.26 101.98 193.6 102.98 193.16 104.07C192.71 105.17 192.49 106.34 192.51 107.52C192.51 109.62 193.04 111.29 194.1 112.52C195.11 113.73 196.42 114.66 197.9 115.22C199.7 115.88 201.54 116.4 203.42 116.8C205.42 117.26 206.88 117.7 207.78 118.12C208.69 118.53 209.14 119.18 209.14 120.04C209.14 121.68 207.56 122.5 204.39 122.5C202.66 122.49 200.94 122.22 199.29 121.68C197.68 121.19 196.14 120.46 194.74 119.52L192.02 125.83Z"></path></g></svg>